<svg xmlns="http://www.w3.org/2000/svg" width="1016" height="1019" viewBox="0 0 1016 1019">
<g>
<path d="M 531.50 581.02 C519.05,583.07 505.94,583.37 493.27,581.90 C478.65,580.20 454.33,574.68 442.81,570.46 C429.17,565.46 407.83,554.36 398.24,547.29 L 394.98 544.88 L 400.74 538.29 C408.42,529.49 432.10,504.00 432.59,504.00 C432.80,504.00 437.01,506.51 441.95,509.58 C457.46,519.22 479.32,527.00 496.65,529.04 C522.12,532.05 561.12,520.81 586.43,503.17 C595.15,497.09 613.59,479.88 614.51,476.95 C615.11,475.07 599.00,442.00 590.68,428.00 C588.22,423.88 586.41,420.17 586.65,419.78 C586.89,419.38 588.98,418.54 591.29,417.91 C596.26,416.56 627.92,409.51 633.08,408.60 L 636.66 407.97 L 642.89 417.99 C646.32,423.49 649.32,428.00 649.55,428.00 C651.24,428.00 660.10,406.32 661.53,398.70 C662.21,395.09 662.12,394.93 659.87,395.39 C658.57,395.67 654.12,396.16 650.00,396.50 C625.57,398.52 603.89,403.54 571.56,414.68 C539.39,425.76 501.38,443.49 477.34,458.63 C443.89,479.68 422.55,498.36 396.50,529.39 C392.10,534.63 388.23,538.93 387.89,538.96 C387.56,538.98 384.28,536.75 380.60,534.00 C376.92,531.25 373.49,529.00 372.97,529.00 C372.46,529.00 371.07,530.90 369.88,533.23 C368.70,535.55 366.73,539.04 365.50,540.98 C359.66,550.22 352.37,563.10 347.91,572.09 L 342.98 582.00 L 312.65 582.00 C283.33,582.00 282.25,581.93 280.45,579.95 C278.63,577.94 278.69,577.73 283.27,568.70 C285.85,563.64 290.71,554.55 294.09,548.50 C297.46,542.45 304.40,529.85 309.51,520.50 C314.62,511.15 321.97,498.12 325.86,491.55 L 332.92 479.60 L 330.08 474.55 C303.85,427.92 293.58,397.61 288.87,353.00 C287.33,338.34 287.33,306.32 288.88,294.00 C290.59,280.37 295.50,256.83 298.57,247.50 C312.29,205.87 331.54,172.93 357.71,146.30 C373.91,129.82 389.43,118.43 411.16,107.08 C426.92,98.85 436.73,95.10 454.44,90.56 C496.42,79.78 538.35,81.33 579.50,95.20 C591.91,99.38 621.62,114.67 632.50,122.48 C642.95,129.97 663.10,148.86 670.87,158.43 C682.22,172.42 693.24,189.07 700.37,203.00 C708.74,219.37 713.00,230.25 718.93,250.50 C721.19,258.20 723.75,266.87 724.62,269.77 C725.49,272.67 725.97,275.64 725.69,276.37 C724.96,278.27 715.08,278.98 689.28,278.99 L 667.05 279.00 L 665.61 276.21 C664.81,274.67 663.43,270.51 662.53,266.96 C657.38,246.52 646.35,221.27 635.49,205.02 C629.06,195.41 616.01,180.90 608.20,174.66 C585.22,156.33 565.55,147.04 538.86,141.93 C528.72,139.98 525.35,139.81 507.50,140.31 C491.32,140.76 485.25,141.35 475.73,143.41 C456.71,147.52 446.40,151.49 432.29,160.13 C417.80,168.99 401.24,183.07 392.49,193.96 C384.98,203.30 373.19,221.14 368.26,230.61 C354.94,256.21 349.15,275.84 346.02,306.00 C342.44,340.52 349.70,380.93 365.80,416.04 L 367.61 420.01 L 373.44 410.76 C376.64,405.66 382.00,397.00 385.34,391.50 C388.68,386.00 394.85,375.88 399.04,369.00 C406.48,356.81 424.15,326.56 433.22,310.50 C437.36,303.18 444.81,290.29 466.47,253.00 C470.78,245.57 476.64,235.68 479.48,231.00 C482.33,226.32 488.62,215.84 493.47,207.71 C498.31,199.58 503.09,192.49 504.07,191.96 C506.89,190.45 511.59,190.83 513.79,192.75 C514.90,193.71 522.88,206.43 531.53,221.00 C540.17,235.57 549.62,251.32 552.53,256.00 C573.61,289.97 605.00,344.93 605.00,347.88 C605.00,348.39 602.64,349.11 599.75,349.48 C593.56,350.27 574.82,354.90 563.55,358.42 C557.90,360.19 555.23,360.61 554.34,359.87 C553.11,358.85 549.45,352.41 541.04,336.50 C530.49,316.52 510.49,281.00 509.80,281.00 C508.61,281.00 501.72,292.55 482.93,326.00 C480.00,331.23 476.41,337.30 474.95,339.50 C473.49,341.70 469.06,349.12 465.10,356.00 C461.14,362.88 456.08,371.42 453.85,375.00 C451.62,378.58 448.21,384.65 446.27,388.50 C444.33,392.35 439.29,401.35 435.05,408.50 C425.95,423.88 413.64,446.97 414.23,447.56 C414.46,447.79 419.97,444.12 426.48,439.41 C468.31,409.13 501.04,391.75 552.42,372.50 C571.47,365.37 586.88,361.13 608.50,357.07 C640.98,350.97 648.02,349.91 662.60,348.88 C677.80,347.80 713.76,348.24 725.85,349.65 L 731.20 350.27 L 730.53 356.89 C728.56,376.18 725.84,387.75 716.28,417.50 C711.89,431.16 695.23,465.52 687.84,476.15 C686.83,477.61 686.00,479.36 686.00,480.02 C686.00,480.69 691.48,490.75 698.18,502.37 C724.27,547.62 737.23,571.79 737.38,575.47 L 737.50 578.50 L 707.50 578.74 C685.11,578.92 676.91,578.67 675.16,577.74 C673.64,576.93 669.52,570.21 663.37,558.50 C652.17,537.19 645.86,525.99 645.07,526.02 C644.76,526.02 640.67,529.41 636.00,533.53 C606.59,559.49 574.96,573.87 531.50,581.02 ZM 298.48 766.49 C293.35,767.57 284.55,767.97 265.25,767.98 L 239.00 768.00 L 239.00 653.00 L 265.75 653.01 C294.65,653.03 300.33,653.73 310.49,658.54 C317.90,662.04 328.94,672.54 332.74,679.68 C338.71,690.92 340.51,698.26 340.42,711.00 C340.35,721.39 340.02,723.37 337.05,731.50 C332.96,742.73 328.51,749.51 321.40,755.36 C314.31,761.20 307.24,764.63 298.48,766.49 ZM 600.06 695.50 L 600.00 768.00 L 577.00 768.00 L 577.00 653.00 L 599.86 653.00 L 612.18 670.52 C618.96,680.15 627.42,692.02 631.00,696.89 C634.58,701.77 640.20,709.63 643.50,714.38 C646.80,719.12 649.78,723.00 650.13,723.00 C650.48,723.00 650.52,707.25 650.23,688.00 L 649.70 653.00 L 674.00 653.00 L 674.00 768.00 L 663.25 768.00 L 652.50 767.99 L 643.78 755.75 C638.99,749.01 631.20,738.10 626.48,731.50 C621.76,724.90 614.89,715.27 611.20,710.10 C607.52,704.93 603.50,699.53 602.28,698.10 ZM 339.50 897.64 C333.25,899.31 318.04,899.24 311.78,897.52 C301.34,894.65 290.29,885.78 285.16,876.16 C269.58,846.92 284.73,810.74 314.96,805.01 C332.01,801.77 347.67,805.89 358.48,816.44 C367.77,825.51 372.01,836.76 371.99,852.30 C371.97,866.71 368.01,877.15 359.24,885.92 C352.93,892.23 347.35,895.54 339.50,897.64 ZM 475.93 755.25 L 471.37 767.50 L 458.22 767.78 L 445.07 768.06 L 447.59 761.34 C448.98,757.65 453.47,746.84 457.56,737.33 C461.65,727.81 465.00,719.76 465.00,719.44 C465.00,719.12 468.76,709.33 473.36,697.68 C477.96,686.03 483.86,670.99 486.48,664.25 L 491.23 652.00 L 515.66 652.00 L 517.81 656.75 C518.99,659.36 521.83,666.45 524.11,672.50 C526.40,678.55 529.07,685.53 530.05,688.00 C531.03,690.47 535.04,700.83 538.97,711.00 C542.90,721.17 548.11,734.45 550.54,740.50 C555.04,751.68 560.00,765.68 560.00,767.18 C560.00,767.63 554.62,768.00 548.05,768.00 L 536.09 768.00 L 534.21 763.74 C533.17,761.39 531.09,755.77 529.58,751.24 L 526.84 743.00 L 480.50 743.00 ZM 137.30 759.75 L 134.50 768.00 L 121.64 768.00 C109.80,768.00 108.84,767.86 109.49,766.25 C109.88,765.29 113.55,755.72 117.65,745.00 C121.75,734.28 127.96,718.30 131.45,709.50 C134.94,700.70 141.33,684.40 145.65,673.28 L 153.50 653.05 L 160.10 653.03 C163.74,653.01 169.36,652.73 172.60,652.40 L 178.50 651.79 L 180.90 658.15 C182.21,661.64 184.11,666.30 185.10,668.50 C186.09,670.70 190.32,681.66 194.48,692.85 C198.65,704.05 202.67,714.40 203.42,715.85 C204.17,717.31 208.27,727.72 212.53,739.00 C216.79,750.28 221.11,761.17 222.14,763.21 C223.16,765.25 224.00,767.16 224.00,767.46 C224.00,767.76 218.23,768.00 211.19,768.00 L 198.37 768.00 L 193.97 755.63 L 189.56 743.27 L 179.24 742.60 C173.56,742.23 163.12,742.24 156.04,742.61 L 143.16 743.29 L 141.63 747.40 C140.79,749.65 138.85,755.21 137.30,759.75 ZM 768.54 768.46 C761.21,770.36 745.62,770.35 737.78,768.45 C717.75,763.59 701.02,745.77 696.51,724.47 C688.96,688.82 708.60,657.12 741.87,651.27 C764.25,647.33 786.95,655.54 797.46,671.37 C801.37,677.27 805.43,687.50 804.47,689.05 C804.15,689.57 798.32,690.00 791.52,690.00 L 779.16 690.00 L 777.99 686.47 C774.91,677.13 766.16,672.03 753.22,672.01 C739.36,671.99 731.63,676.90 725.29,689.74 L 721.50 697.40 L 721.50 710.45 C721.50,722.62 721.68,723.87 724.22,729.03 C730.20,741.22 739.22,747.77 751.36,748.74 C763.23,749.69 772.24,744.80 777.40,734.61 L 780.24 729.00 L 805.90 729.00 L 804.56 733.45 C799.48,750.35 785.30,764.13 768.54,768.46 ZM 902.00 746.03 L 902.00 768.00 L 826.00 768.00 L 826.00 653.00 L 902.00 653.00 L 902.00 674.00 L 849.94 674.00 L 850.22 687.25 L 850.50 700.50 L 872.75 700.77 L 895.00 701.04 L 895.00 722.00 L 849.94 722.00 L 850.50 745.50 L 876.25 745.77 ZM 415.77 761.50 L 413.38 767.50 L 400.81 767.78 L 388.23 768.06 L 382.00 752.28 C378.58,743.60 372.74,728.17 369.02,718.00 C365.30,707.83 361.49,697.70 360.55,695.50 C358.29,690.20 345.00,654.41 345.00,653.62 C345.00,653.28 350.58,653.00 357.40,653.00 L 369.80 653.00 L 372.56 660.75 C374.07,665.01 376.78,672.33 378.56,677.00 C380.34,681.67 384.50,693.15 387.80,702.50 C396.03,725.80 401.12,738.29 402.01,737.32 C402.41,736.87 405.92,727.05 409.80,715.50 C413.68,703.95 420.03,685.32 423.92,674.11 C427.82,662.90 431.00,653.56 431.00,653.36 C431.00,653.16 436.85,653.00 444.00,653.00 C451.15,653.00 457.00,653.32 457.00,653.71 C457.00,654.10 455.44,658.27 453.54,662.96 C451.64,667.66 446.95,679.83 443.13,690.00 C435.20,711.10 419.34,752.56 415.77,761.50 ZM 408.50 868.25 L 408.50 896.50 L 390.00 897.08 L 390.00 806.00 L 399.38 806.00 C408.53,806.00 408.82,806.07 410.55,808.75 C411.52,810.26 414.65,814.65 417.49,818.50 C420.33,822.35 427.46,832.25 433.33,840.50 C439.20,848.75 445.14,856.85 446.53,858.50 L 449.07 861.50 L 448.40 833.75 L 447.74 806.00 L 467.00 806.00 L 467.00 897.00 L 450.16 897.00 L 430.01 868.75 C418.93,853.21 409.56,840.39 409.18,840.25 C408.81,840.11 408.50,852.71 408.50,868.25 ZM 507.50 838.59 L 506.97 897.00 L 489.00 897.00 L 489.00 806.00 L 507.50 806.04 L 515.60 817.27 C539.34,850.20 547.24,861.00 547.59,861.00 C547.80,861.00 547.69,848.62 547.33,833.50 L 546.68 806.00 L 566.00 806.00 L 566.00 897.00 L 549.17 897.00 L 536.56 879.25 C529.63,869.49 522.28,859.11 520.23,856.18 C518.18,853.26 514.47,848.11 512.00,844.73 ZM 234.78 898.49 C227.25,900.27 223.47,900.27 215.40,898.51 C193.57,893.76 179.00,874.98 179.00,851.59 C179.00,827.65 192.49,809.76 214.16,804.97 C217.62,804.21 223.67,803.91 229.77,804.20 C238.14,804.61 240.75,805.16 246.16,807.69 C255.12,811.89 259.40,816.01 263.59,824.48 C268.77,834.96 268.50,835.44 257.28,835.79 L 248.08 836.07 L 246.08 832.16 C241.91,823.98 234.36,820.39 223.20,821.28 C210.76,822.27 202.39,830.86 199.99,845.08 C196.66,864.83 206.85,880.76 223.51,881.82 C234.11,882.49 241.70,878.43 245.48,870.05 L 247.30 866.00 L 266.90 866.00 L 265.50 870.68 C263.80,876.31 258.19,884.69 252.93,889.44 C247.91,893.98 242.52,896.67 234.78,898.49 ZM 718.00 898.43 C706.89,900.96 699.02,900.07 688.35,895.08 C664.78,884.05 655.34,853.86 667.46,828.27 C671.61,819.51 678.19,812.78 686.43,808.87 C694.80,804.92 701.92,803.68 713.25,804.23 C721.97,804.65 723.79,805.09 730.45,808.38 C740.96,813.57 748.97,823.71 749.36,832.29 L 749.50 835.50 L 740.36 835.79 L 731.21 836.07 L 729.11 831.73 C725.31,823.87 718.05,820.44 706.93,821.24 C691.24,822.36 682.99,833.10 683.01,852.38 C683.02,859.83 683.45,862.41 685.36,866.50 C689.98,876.38 698.22,881.94 708.28,881.98 C717.98,882.01 724.95,877.86 728.53,869.93 L 730.30 866.00 L 739.65 866.00 C750.32,866.00 750.47,866.16 746.92,873.98 C741.29,886.40 730.39,895.61 718.00,898.43 ZM 648.79 888.27 L 648.50 896.50 L 588.00 897.03 L 588.00 806.00 L 649.00 806.00 L 649.00 823.00 L 607.00 823.00 L 607.00 831.92 C607.00,836.82 607.27,841.55 607.61,842.42 C608.13,843.78 610.67,844.00 625.61,844.00 L 643.00 844.00 L 643.00 861.00 L 606.92 861.00 L 607.50 879.50 L 628.29 879.77 L 649.08 880.04 ZM 263.94 746.36 C263.97,746.83 270.41,747.03 278.25,746.80 C295.10,746.30 299.28,744.82 306.52,736.77 C312.97,729.59 315.42,721.11 314.79,708.09 C314.23,696.48 311.31,689.01 304.89,682.78 C297.87,675.96 293.60,674.68 277.71,674.58 L 263.91 674.50 L 263.89 710.00 C263.88,729.53 263.90,745.89 263.94,746.36 ZM 808.76 859.78 L 808.50 896.50 L 799.45 896.78 C794.47,896.94 790.07,896.74 789.67,896.33 C789.26,895.93 788.98,879.38 789.04,859.55 L 789.15 823.50 L 775.57 823.22 L 762.00 822.94 L 762.00 806.00 L 837.08 806.00 L 836.79 814.25 L 836.50 822.50 L 822.76 822.78 L 809.02 823.06 ZM 316.62 880.53 C321.39,882.23 329.55,882.39 334.10,880.86 C348.91,875.91 355.78,856.38 349.35,837.52 C347.21,831.22 340.04,823.90 334.38,822.22 C325.67,819.63 316.14,821.18 310.54,826.10 C294.20,840.45 297.93,873.87 316.62,880.53 ZM 151.00 722.17 C151.00,723.31 180.74,723.23 181.44,722.09 C181.93,721.31 173.47,697.50 168.45,685.53 L 166.79 681.56 L 165.22 684.53 C163.48,687.83 151.00,720.86 151.00,722.17 ZM 488.51 722.02 C488.86,722.58 495.02,723.00 503.09,723.00 C519.22,723.00 519.25,722.98 516.22,714.79 C509.00,695.31 504.72,684.39 504.03,683.67 C503.59,683.21 502.00,686.14 500.49,690.17 C498.98,694.20 495.53,702.80 492.83,709.27 C490.12,715.74 488.18,721.48 488.51,722.02 Z" fill="rgb(2,40,98)"/>
<path d="M 0.00 509.50 L 0.00 0.00 L 508.00 0.00 L 1016.00 0.00 L 1016.00 509.50 L 1016.00 1019.00 L 508.00 1019.00 L 0.00 1019.00 L 0.00 509.50 ZM 234.78 898.49 C242.52,896.67 247.91,893.98 252.93,889.44 C258.19,884.69 263.80,876.31 265.50,870.68 L 266.90 866.00 L 257.10 866.00 L 247.30 866.00 L 245.48 870.05 C241.70,878.43 234.11,882.49 223.51,881.82 C206.85,880.76 196.66,864.83 199.99,845.08 C202.39,830.86 210.76,822.27 223.20,821.28 C234.36,820.39 241.91,823.98 246.08,832.16 L 248.08 836.07 L 257.28 835.79 C268.50,835.44 268.77,834.96 263.59,824.48 C259.40,816.01 255.12,811.89 246.16,807.69 C240.75,805.16 238.14,804.61 229.77,804.20 C223.67,803.91 217.62,804.21 214.16,804.97 C192.49,809.76 179.00,827.65 179.00,851.59 C179.00,874.98 193.57,893.76 215.40,898.51 C223.47,900.27 227.25,900.27 234.78,898.49 ZM 718.00 898.43 C730.39,895.61 741.29,886.40 746.92,873.98 C750.47,866.16 750.32,866.00 739.65,866.00 L 730.30 866.00 L 728.53 869.93 C724.95,877.86 717.98,882.01 708.28,881.98 C698.22,881.94 689.98,876.38 685.36,866.50 C683.45,862.41 683.02,859.83 683.01,852.38 C682.99,833.10 691.24,822.36 706.93,821.24 C718.05,820.44 725.31,823.87 729.11,831.73 L 731.21 836.07 L 740.36 835.79 L 749.50 835.50 L 749.36 832.29 C748.97,823.71 740.96,813.57 730.45,808.38 C723.79,805.09 721.97,804.65 713.25,804.23 C701.92,803.68 694.80,804.92 686.43,808.87 C678.19,812.78 671.61,819.51 667.46,828.27 C655.34,853.86 664.78,884.05 688.35,895.08 C699.02,900.07 706.89,900.96 718.00,898.43 ZM 339.50 897.64 C347.35,895.54 352.93,892.23 359.24,885.92 C368.01,877.15 371.97,866.71 371.99,852.30 C372.01,836.76 367.77,825.51 358.48,816.44 C347.67,805.89 332.01,801.77 314.96,805.01 C284.73,810.74 269.58,846.92 285.16,876.16 C290.29,885.78 301.34,894.65 311.78,897.52 C318.04,899.24 333.25,899.31 339.50,897.64 ZM 408.50 868.25 C408.50,852.71 408.81,840.11 409.18,840.25 C409.56,840.39 418.93,853.21 430.01,868.75 L 450.16 897.00 L 458.58 897.00 L 467.00 897.00 L 467.00 851.50 L 467.00 806.00 L 457.37 806.00 L 447.74 806.00 L 448.40 833.75 L 449.07 861.50 L 446.53 858.50 C445.14,856.85 439.20,848.75 433.33,840.50 C427.46,832.25 420.33,822.35 417.49,818.50 C414.65,814.65 411.52,810.26 410.55,808.75 C408.82,806.07 408.53,806.00 399.38,806.00 L 390.00 806.00 L 390.00 851.54 L 390.00 897.08 L 399.25 896.79 L 408.50 896.50 L 408.50 868.25 ZM 507.23 867.79 L 507.50 838.59 L 512.00 844.73 C514.47,848.11 518.18,853.26 520.23,856.18 C522.28,859.11 529.63,869.49 536.56,879.25 L 549.17 897.00 L 557.58 897.00 L 566.00 897.00 L 566.00 851.50 L 566.00 806.00 L 556.34 806.00 L 546.68 806.00 L 547.33 833.50 C547.69,848.62 547.80,861.00 547.59,861.00 C547.24,861.00 539.34,850.20 515.60,817.27 L 507.50 806.04 L 498.25 806.02 L 489.00 806.00 L 489.00 851.50 L 489.00 897.00 L 497.98 897.00 L 506.97 897.00 L 507.23 867.79 ZM 648.79 888.27 L 649.08 880.04 L 628.29 879.77 L 607.50 879.50 L 607.21 870.25 L 606.92 861.00 L 624.96 861.00 L 643.00 861.00 L 643.00 852.50 L 643.00 844.00 L 625.61 844.00 C610.67,844.00 608.13,843.78 607.61,842.42 C607.27,841.55 607.00,836.82 607.00,831.92 L 607.00 823.00 L 628.00 823.00 L 649.00 823.00 L 649.00 814.50 L 649.00 806.00 L 618.50 806.00 L 588.00 806.00 L 588.00 851.51 L 588.00 897.03 L 618.25 896.76 L 648.50 896.50 L 648.79 888.27 ZM 808.76 859.78 L 809.02 823.06 L 822.76 822.78 L 836.50 822.50 L 836.79 814.25 L 837.08 806.00 L 799.54 806.00 L 762.00 806.00 L 762.00 814.47 L 762.00 822.94 L 775.57 823.22 L 789.15 823.50 L 789.04 859.55 C788.98,879.38 789.26,895.93 789.67,896.33 C790.07,896.74 794.47,896.94 799.45,896.78 L 808.50 896.50 L 808.76 859.78 ZM 768.54 768.46 C785.30,764.13 799.48,750.35 804.56,733.45 L 805.90 729.00 L 793.07 729.00 L 780.24 729.00 L 777.40 734.61 C772.24,744.80 763.23,749.69 751.36,748.74 C739.22,747.77 730.20,741.22 724.22,729.03 C721.68,723.87 721.50,722.62 721.50,710.45 L 721.50 697.40 L 725.29 689.74 C731.63,676.90 739.36,671.99 753.22,672.01 C766.16,672.03 774.91,677.13 777.99,686.47 L 779.16 690.00 L 791.52 690.00 C798.32,690.00 804.15,689.57 804.47,689.05 C805.43,687.50 801.37,677.27 797.46,671.37 C786.95,655.54 764.25,647.33 741.87,651.27 C708.60,657.12 688.96,688.82 696.51,724.47 C701.02,745.77 717.75,763.59 737.78,768.45 C745.62,770.35 761.21,770.36 768.54,768.46 ZM 137.30 759.75 C138.85,755.21 140.79,749.65 141.63,747.40 L 143.16 743.29 L 156.04 742.61 C163.12,742.24 173.56,742.23 179.24,742.60 L 189.56 743.27 L 193.97 755.63 L 198.37 768.00 L 211.19 768.00 C218.23,768.00 224.00,767.76 224.00,767.46 C224.00,767.16 223.16,765.25 222.14,763.21 C221.11,761.17 216.79,750.28 212.53,739.00 C208.27,727.72 204.17,717.31 203.42,715.85 C202.67,714.40 198.65,704.05 194.48,692.85 C190.32,681.66 186.09,670.70 185.10,668.50 C184.11,666.30 182.21,661.64 180.90,658.15 L 178.50 651.79 L 172.60 652.40 C169.36,652.73 163.74,653.01 160.10,653.03 L 153.50 653.05 L 145.65 673.28 C141.33,684.40 134.94,700.70 131.45,709.50 C127.96,718.30 121.75,734.28 117.65,745.00 C113.55,755.72 109.88,765.29 109.49,766.25 C108.84,767.86 109.80,768.00 121.64,768.00 L 134.50 768.00 L 137.30 759.75 ZM 298.48 766.49 C307.24,764.63 314.31,761.20 321.40,755.36 C328.51,749.51 332.96,742.73 337.05,731.50 C340.02,723.37 340.35,721.39 340.42,711.00 C340.51,698.26 338.71,690.92 332.74,679.68 C328.94,672.54 317.90,662.04 310.49,658.54 C300.33,653.73 294.65,653.03 265.75,653.01 L 239.00 653.00 L 239.00 710.50 L 239.00 768.00 L 265.25 767.98 C284.55,767.97 293.35,767.57 298.48,766.49 ZM 415.77 761.50 C419.34,752.56 435.20,711.10 443.13,690.00 C446.95,679.83 451.64,667.66 453.54,662.96 C455.44,658.27 457.00,654.10 457.00,653.71 C457.00,653.32 451.15,653.00 444.00,653.00 C436.85,653.00 431.00,653.16 431.00,653.36 C431.00,653.56 427.82,662.90 423.92,674.11 C420.03,685.32 413.68,703.95 409.80,715.50 C405.92,727.05 402.41,736.87 402.01,737.32 C401.12,738.29 396.03,725.80 387.80,702.50 C384.50,693.15 380.34,681.67 378.56,677.00 C376.78,672.33 374.07,665.01 372.56,660.75 L 369.80 653.00 L 357.40 653.00 C350.58,653.00 345.00,653.28 345.00,653.62 C345.00,654.41 358.29,690.20 360.55,695.50 C361.49,697.70 365.30,707.83 369.02,718.00 C372.74,728.17 378.58,743.60 382.00,752.28 L 388.23 768.06 L 400.81 767.78 L 413.38 767.50 L 415.77 761.50 ZM 475.93 755.25 L 480.50 743.00 L 503.67 743.00 L 526.84 743.00 L 529.58 751.24 C531.09,755.77 533.17,761.39 534.21,763.74 L 536.09 768.00 L 548.05 768.00 C554.62,768.00 560.00,767.63 560.00,767.18 C560.00,765.68 555.04,751.68 550.54,740.50 C548.11,734.45 542.90,721.17 538.97,711.00 C535.04,700.83 531.03,690.47 530.05,688.00 C529.07,685.53 526.40,678.55 524.11,672.50 C521.83,666.45 518.99,659.36 517.81,656.75 L 515.66 652.00 L 503.45 652.00 L 491.23 652.00 L 486.48 664.25 C483.86,670.99 477.96,686.03 473.36,697.68 C468.76,709.33 465.00,719.12 465.00,719.44 C465.00,719.76 461.65,727.81 457.56,737.33 C453.47,746.84 448.98,757.65 447.59,761.34 L 445.07 768.06 L 458.22 767.78 L 471.37 767.50 L 475.93 755.25 ZM 600.03 731.75 L 600.06 695.50 L 602.28 698.10 C603.50,699.53 607.52,704.93 611.20,710.10 C614.89,715.27 621.76,724.90 626.48,731.50 C631.20,738.10 638.99,749.01 643.78,755.75 L 652.50 767.99 L 663.25 768.00 L 674.00 768.00 L 674.00 710.50 L 674.00 653.00 L 661.85 653.00 L 649.70 653.00 L 650.23 688.00 C650.52,707.25 650.48,723.00 650.13,723.00 C649.78,723.00 646.80,719.12 643.50,714.38 C640.20,709.63 634.58,701.77 631.00,696.89 C627.42,692.02 618.96,680.15 612.18,670.52 L 599.86 653.00 L 588.43 653.00 L 577.00 653.00 L 577.00 710.50 L 577.00 768.00 L 588.50 768.00 L 600.00 768.00 L 600.03 731.75 ZM 902.00 757.02 L 902.00 746.03 L 876.25 745.77 L 850.50 745.50 L 850.22 733.75 L 849.94 722.00 L 872.47 722.00 L 895.00 722.00 L 895.00 711.52 L 895.00 701.04 L 872.75 700.77 L 850.50 700.50 L 850.22 687.25 L 849.94 674.00 L 875.97 674.00 L 902.00 674.00 L 902.00 663.50 L 902.00 653.00 L 864.00 653.00 L 826.00 653.00 L 826.00 710.50 L 826.00 768.00 L 864.00 768.00 L 902.00 768.00 L 902.00 757.02 ZM 531.50 581.02 C574.96,573.87 606.59,559.49 636.00,533.53 C640.67,529.41 644.76,526.02 645.07,526.02 C645.86,525.99 652.17,537.19 663.37,558.50 C669.52,570.21 673.64,576.93 675.16,577.74 C676.91,578.67 685.11,578.92 707.50,578.74 L 737.50 578.50 L 737.38 575.47 C737.23,571.79 724.27,547.62 698.18,502.37 C691.48,490.75 686.00,480.69 686.00,480.02 C686.00,479.36 686.83,477.61 687.84,476.15 C695.23,465.52 711.89,431.16 716.28,417.50 C725.84,387.75 728.56,376.18 730.53,356.89 L 731.20 350.27 L 725.85 349.65 C713.76,348.24 677.80,347.80 662.60,348.88 C648.02,349.91 640.98,350.97 608.50,357.07 C586.88,361.13 571.47,365.37 552.42,372.50 C501.04,391.75 468.31,409.13 426.48,439.41 C419.97,444.12 414.46,447.79 414.23,447.56 C413.64,446.97 425.95,423.88 435.05,408.50 C439.29,401.35 444.33,392.35 446.27,388.50 C448.21,384.65 451.62,378.58 453.85,375.00 C456.08,371.42 461.14,362.88 465.10,356.00 C469.06,349.12 473.49,341.70 474.95,339.50 C476.41,337.30 480.00,331.23 482.93,326.00 C501.72,292.55 508.61,281.00 509.80,281.00 C510.49,281.00 530.49,316.52 541.04,336.50 C549.45,352.41 553.11,358.85 554.34,359.87 C555.23,360.61 557.90,360.19 563.55,358.42 C574.82,354.90 593.56,350.27 599.75,349.48 C602.64,349.11 605.00,348.39 605.00,347.88 C605.00,344.93 573.61,289.97 552.53,256.00 C549.62,251.32 540.17,235.57 531.53,221.00 C522.88,206.43 514.90,193.71 513.79,192.75 C511.59,190.83 506.89,190.45 504.07,191.96 C503.09,192.49 498.31,199.58 493.47,207.71 C488.62,215.84 482.33,226.32 479.48,231.00 C476.64,235.68 470.78,245.57 466.47,253.00 C444.81,290.29 437.36,303.18 433.22,310.50 C424.15,326.56 406.48,356.81 399.04,369.00 C394.85,375.88 388.68,386.00 385.34,391.50 C382.00,397.00 376.64,405.66 373.44,410.76 L 367.61 420.01 L 365.80 416.04 C349.70,380.93 342.44,340.52 346.02,306.00 C349.15,275.84 354.94,256.21 368.26,230.61 C373.19,221.14 384.98,203.30 392.49,193.96 C401.24,183.07 417.80,168.99 432.29,160.13 C446.40,151.49 456.71,147.52 475.73,143.41 C485.25,141.35 491.32,140.76 507.50,140.31 C525.35,139.81 528.72,139.98 538.86,141.93 C565.55,147.04 585.22,156.33 608.20,174.66 C616.01,180.90 629.06,195.41 635.49,205.02 C646.35,221.27 657.38,246.52 662.53,266.96 C663.43,270.51 664.81,274.67 665.61,276.21 L 667.05 279.00 L 689.28 278.99 C715.08,278.98 724.96,278.27 725.69,276.37 C725.97,275.64 725.49,272.67 724.62,269.77 C723.75,266.87 721.19,258.20 718.93,250.50 C713.00,230.25 708.74,219.37 700.37,203.00 C693.24,189.07 682.22,172.42 670.87,158.43 C663.10,148.86 642.95,129.97 632.50,122.48 C621.62,114.67 591.91,99.38 579.50,95.20 C538.35,81.33 496.42,79.78 454.44,90.56 C436.73,95.10 426.92,98.85 411.16,107.08 C389.43,118.43 373.91,129.82 357.71,146.30 C331.54,172.93 312.29,205.87 298.57,247.50 C295.50,256.83 290.59,280.37 288.88,294.00 C287.33,306.32 287.33,338.34 288.87,353.00 C293.58,397.61 303.85,427.92 330.08,474.55 L 332.92 479.60 L 325.86 491.55 C321.97,498.12 314.62,511.15 309.51,520.50 C304.40,529.85 297.46,542.45 294.09,548.50 C290.71,554.55 285.85,563.64 283.27,568.70 C278.69,577.73 278.63,577.94 280.45,579.95 C282.25,581.93 283.33,582.00 312.65,582.00 L 342.98 582.00 L 347.91 572.09 C352.37,563.10 359.66,550.22 365.50,540.98 C366.73,539.04 368.70,535.55 369.88,533.23 C371.07,530.90 372.46,529.00 372.97,529.00 C373.49,529.00 376.92,531.25 380.60,534.00 C384.28,536.75 387.56,538.98 387.89,538.96 C388.23,538.93 392.10,534.63 396.50,529.39 C422.55,498.36 443.89,479.68 477.34,458.63 C501.38,443.49 539.39,425.76 571.56,414.68 C603.89,403.54 625.57,398.52 650.00,396.50 C654.12,396.16 658.57,395.67 659.87,395.39 C662.12,394.93 662.21,395.09 661.53,398.70 C660.10,406.32 651.24,428.00 649.55,428.00 C649.32,428.00 646.32,423.49 642.89,417.99 L 636.66 407.97 L 633.08 408.60 C627.92,409.51 596.26,416.56 591.29,417.91 C588.98,418.54 586.89,419.38 586.65,419.78 C586.41,420.17 588.22,423.88 590.68,428.00 C599.00,442.00 615.11,475.07 614.51,476.95 C613.59,479.88 595.15,497.09 586.43,503.17 C561.12,520.81 522.12,532.05 496.65,529.04 C479.32,527.00 457.46,519.22 441.95,509.58 C437.01,506.51 432.80,504.00 432.59,504.00 C432.10,504.00 408.42,529.49 400.74,538.29 L 394.98 544.88 L 398.24 547.29 C407.83,554.36 429.17,565.46 442.81,570.46 C454.33,574.68 478.65,580.20 493.27,581.90 C505.94,583.37 519.05,583.07 531.50,581.02 ZM 316.62 880.53 C297.93,873.87 294.20,840.45 310.54,826.10 C316.14,821.18 325.67,819.63 334.38,822.22 C340.04,823.90 347.21,831.22 349.35,837.52 C355.78,856.38 348.91,875.91 334.10,880.86 C329.55,882.39 321.39,882.23 316.62,880.53 ZM 151.00 722.17 C151.00,720.86 163.48,687.83 165.22,684.53 L 166.79 681.56 L 168.45 685.53 C173.47,697.50 181.93,721.31 181.44,722.09 C180.74,723.23 151.00,723.31 151.00,722.17 ZM 263.94 746.36 C263.90,745.89 263.88,729.53 263.89,710.00 L 263.91 674.50 L 277.71 674.58 C293.60,674.68 297.87,675.96 304.89,682.78 C311.31,689.01 314.23,696.48 314.79,708.09 C315.42,721.11 312.97,729.59 306.52,736.77 C299.28,744.82 295.10,746.30 278.25,746.80 C270.41,747.03 263.97,746.83 263.94,746.36 ZM 488.51 722.02 C488.18,721.48 490.12,715.74 492.83,709.27 C495.53,702.80 498.98,694.20 500.49,690.17 C502.00,686.14 503.59,683.21 504.03,683.67 C504.72,684.39 509.00,695.31 516.22,714.79 C519.25,722.98 519.22,723.00 503.09,723.00 C495.02,723.00 488.86,722.58 488.51,722.02 Z" fill="rgb(253,252,248)"/>
</g>
</svg>